<svg xmlns="http://www.w3.org/2000/svg" version="1.1" xmlns:xlink="http://www.w3.org/1999/xlink" xmlns:svgjs="http://svgjs.dev/svgjs" viewBox="0 0 13.420965255109225 13.93275027264681"><g transform="matrix(1,0,0,1,1.1394987408358626,10.790826531810946)"><g><path d=" M 0.6951247558593745 1.11 L 0.19862475585937445 0.039000000000000146 L 0.46712475585937446 0.039000000000000146 L 0.7866247558593744 0.8205 L 0.6951247558593745 1.11 M 0.6951247558593745 1.11 L 0.6906247558593744 0.927 L 1.0716247558593746 0.034499999999999975 L 1.1796247558593744 0.034499999999999975 L 0.7821247558593745 0.9135000000000001 Q 0.7791247558593745 0.9225000000000001 0.7678747558593745 0.94725 Q 0.7566247558593745 0.9720000000000001 0.7431247558593744 1.0035 Q 0.7296247558593745 1.0350000000000001 0.7198747558593744 1.0642500000000001 Q 0.7101247558593745 1.0935000000000001 0.7086247558593745 1.11 L 0.6951247558593745 1.11 M 1.0266247558593746 0.13950000000000007 Q 1.0461247558593745 0.09450000000000003 1.0221247558593745 0.06974999999999998 Q 0.9981247558593744 0.04500000000000015 0.9696247558593745 0.04500000000000015 L 0.9561247558593745 0.04500000000000015 L 0.9561247558593745 0.030000000000000027 L 1.2771247558593746 0.030000000000000027 L 1.2771247558593746 0.04500000000000015 Q 1.2771247558593746 0.04500000000000015 1.2703747558593745 0.04500000000000015 Q 1.2636247558593745 0.04500000000000015 1.2636247558593745 0.04500000000000015 Q 1.2306247558593746 0.04500000000000015 1.1938747558593745 0.06675000000000009 Q 1.1571247558593745 0.08850000000000002 1.1331247558593744 0.13950000000000007 L 1.0266247558593746 0.13950000000000007 M 0.5091247558593744 0.13950000000000007 L 0.24512475585937446 0.13950000000000007 Q 0.22112475585937447 0.08850000000000002 0.18437475585937446 0.06675000000000009 Q 0.14762475585937446 0.04500000000000015 0.11312475585937445 0.04500000000000015 Q 0.11312475585937445 0.04500000000000015 0.10712475585937445 0.04500000000000015 Q 0.10112475585937444 0.04500000000000015 0.10112475585937444 0.04500000000000015 L 0.10112475585937444 0.030000000000000027 L 0.5781247558593745 0.030000000000000027 L 0.5781247558593745 0.04500000000000015 L 0.5646247558593744 0.04500000000000015 Q 0.5361247558593745 0.04500000000000015 0.5143747558593745 0.06974999999999998 Q 0.4926247558593745 0.09450000000000003 0.5091247558593744 0.13950000000000007 M 1.6371657714843744 0.030000000000000027 L 1.6371657714843744 1.08 L 1.4121657714843745 1.08 L 1.4121657714843745 0.030000000000000027 L 1.6371657714843744 0.030000000000000027 M 1.4166657714843744 0.9705 L 1.4166657714843744 1.08 L 1.2966657714843743 1.08 L 1.2966657714843743 1.0650000000000002 Q 1.2966657714843743 1.0650000000000002 1.3064157714843745 1.0650000000000002 Q 1.3161657714843744 1.0650000000000002 1.3161657714843744 1.0650000000000002 Q 1.3551657714843743 1.0650000000000002 1.3829157714843743 1.03725 Q 1.4106657714843744 1.0095 1.4121657714843745 0.9705 L 1.4166657714843744 0.9705 M 1.4166657714843744 0.13950000000000007 L 1.4121657714843745 0.13950000000000007 Q 1.4106657714843744 0.10050000000000003 1.3829157714843743 0.07275000000000009 Q 1.3551657714843743 0.04500000000000015 1.3161657714843744 0.04500000000000015 Q 1.3161657714843744 0.04500000000000015 1.3064157714843745 0.04500000000000015 Q 1.2966657714843743 0.04500000000000015 1.2966657714843743 0.04500000000000015 L 1.2966657714843743 0.030000000000000027 L 1.4166657714843744 0.030000000000000027 L 1.4166657714843744 0.13950000000000007 M 1.6326657714843744 0.9705 L 1.6371657714843744 0.9705 Q 1.6386657714843744 1.0095 1.6664157714843744 1.03725 Q 1.6941657714843745 1.0650000000000002 1.7331657714843745 1.0650000000000002 Q 1.7331657714843745 1.0650000000000002 1.7421657714843746 1.0650000000000002 Q 1.7511657714843745 1.0650000000000002 1.7526657714843745 1.0650000000000002 L 1.7526657714843745 1.08 L 1.6326657714843744 1.08 L 1.6326657714843744 0.9705 M 1.6326657714843744 0.13950000000000007 L 1.6326657714843744 0.030000000000000027 L 1.7526657714843745 0.030000000000000027 L 1.7526657714843745 0.04500000000000015 Q 1.7511657714843745 0.04500000000000015 1.7421657714843746 0.04500000000000015 Q 1.7331657714843745 0.04500000000000015 1.7331657714843745 0.04500000000000015 Q 1.6941657714843745 0.04500000000000015 1.6664157714843744 0.07275000000000009 Q 1.6386657714843744 0.10050000000000003 1.6371657714843744 0.13950000000000007 L 1.6326657714843744 0.13950000000000007 M 2.4202016601562493 0.030000000000000027 Q 2.5972016601562493 0.030000000000000027 2.7262016601562493 0.09375 Q 2.8552016601562493 0.15750000000000008 2.9249516601562493 0.2752500000000001 Q 2.9947016601562493 0.393 2.9947016601562493 0.555 Q 2.9947016601562493 0.7170000000000001 2.9249516601562493 0.8347500000000001 Q 2.8552016601562493 0.9525000000000001 2.7262016601562493 1.01625 Q 2.5972016601562493 1.08 2.4202016601562493 1.08 L 2.0632016601562495 1.08 L 2.0617016601562494 1.0170000000000001 Q 2.1052016601562493 1.0170000000000001 2.1524516601562493 1.0170000000000001 Q 2.1997016601562493 1.0170000000000001 2.2439516601562493 1.0170000000000001 Q 2.2882016601562496 1.0170000000000001 2.324201660156249 1.0170000000000001 Q 2.360201660156249 1.0170000000000001 2.3812016601562496 1.0170000000000001 Q 2.4022016601562495 1.0170000000000001 2.4022016601562495 1.0170000000000001 Q 2.510201660156249 1.0170000000000001 2.5882016601562494 0.9607500000000001 Q 2.6662016601562493 0.9045000000000001 2.7082016601562495 0.801 Q 2.7502016601562493 0.6975 2.7502016601562493 0.555 Q 2.7502016601562493 0.4125000000000001 2.7082016601562495 0.30900000000000005 Q 2.6662016601562493 0.20550000000000002 2.5882016601562494 0.1492500000000001 Q 2.510201660156249 0.09300000000000008 2.4022016601562495 0.09300000000000008 Q 2.4022016601562495 0.09300000000000008 2.3804516601562495 0.09300000000000008 Q 2.3587016601562496 0.09300000000000008 2.3212016601562495 0.09300000000000008 Q 2.2837016601562494 0.09300000000000008 2.2372016601562494 0.09300000000000008 Q 2.1907016601562495 0.09300000000000008 2.1412016601562494 0.09300000000000008 Q 2.0917016601562493 0.09300000000000008 2.0467016601562493 0.09300000000000008 L 2.0467016601562493 0.030000000000000027 L 2.4202016601562493 0.030000000000000027 M 2.2162016601562495 0.030000000000000027 L 2.2162016601562495 1.08 L 1.9912016601562494 1.08 L 1.9912016601562494 0.030000000000000027 L 2.2162016601562495 0.030000000000000027 M 1.9957016601562494 0.9705 L 1.9957016601562494 1.08 L 1.8757016601562493 1.08 L 1.8757016601562493 1.0650000000000002 Q 1.8757016601562493 1.0650000000000002 1.8854516601562494 1.0650000000000002 Q 1.8952016601562494 1.0650000000000002 1.8952016601562494 1.0650000000000002 Q 1.9342016601562493 1.0650000000000002 1.9619516601562492 1.03725 Q 1.9897016601562494 1.0095 1.9912016601562494 0.9705 L 1.9957016601562494 0.9705 M 1.9957016601562494 0.13950000000000007 L 1.9912016601562494 0.13950000000000007 Q 1.9912016601562494 0.10050000000000003 1.9627016601562493 0.07275000000000009 Q 1.9342016601562493 0.04500000000000015 1.8952016601562494 0.04500000000000015 Q 1.8952016601562494 0.04500000000000015 1.8862016601562492 0.04500000000000015 Q 1.8772016601562493 0.04500000000000015 1.8772016601562493 0.04500000000000015 L 1.8757016601562493 0.030000000000000027 L 1.9957016601562494 0.030000000000000027 L 1.9957016601562494 0.13950000000000007 M 3.5362324218749994 0 L 4.025232421875 1.0710000000000002 L 3.7567324218749993 1.0710000000000002 L 3.444732421874999 0.2895000000000001 L 3.5362324218749994 0 M 3.213732421874999 0.9705 Q 3.201732421874999 1.0005000000000002 3.2092324218749995 1.0215 Q 3.2167324218749993 1.0425 3.234732421874999 1.05375 Q 3.2527324218749993 1.0650000000000002 3.270732421874999 1.0650000000000002 L 3.284232421874999 1.0650000000000002 L 3.284232421874999 1.08 L 2.9632324218749995 1.08 L 2.9632324218749995 1.0650000000000002 Q 2.9632324218749995 1.0650000000000002 2.9699824218749993 1.0650000000000002 Q 2.976732421874999 1.0650000000000002 2.976732421874999 1.0650000000000002 Q 3.011232421874999 1.0650000000000002 3.047982421874999 1.04325 Q 3.084732421874999 1.0215 3.108732421874999 0.9705 L 3.213732421874999 0.9705 M 3.5362324218749994 0 L 3.542232421874999 0.18300000000000005 L 3.1702324218749993 1.0755000000000001 L 3.060732421874999 1.0755000000000001 L 3.4492324218749992 0.1965 Q 3.4537324218749994 0.1875 3.4649824218749994 0.16275000000000006 Q 3.4762324218749994 0.138 3.4889824218749994 0.10650000000000004 Q 3.5017324218749994 0.07499999999999996 3.5122324218749994 0.04574999999999996 Q 3.5227324218749994 0.01649999999999996 3.5227324218749994 0 L 3.5362324218749994 0 M 3.693732421874999 0.7230000000000001 L 3.693732421874999 0.786 L 3.2527324218749993 0.786 L 3.2527324218749993 0.7230000000000001 L 3.693732421874999 0.7230000000000001 M 3.716232421874999 0.9705 L 3.9787324218749993 0.9705 Q 4.004232421874999 1.0215 4.040232421874999 1.04325 Q 4.076232421874999 1.0650000000000002 4.110732421874999 1.0650000000000002 Q 4.110732421874999 1.0650000000000002 4.116732421875 1.0650000000000002 Q 4.122732421874999 1.0650000000000002 4.122732421874999 1.0650000000000002 L 4.122732421874999 1.08 L 3.645732421874999 1.08 L 3.645732421874999 1.0650000000000002 L 3.659232421874999 1.0650000000000002 Q 3.6892324218749994 1.0650000000000002 3.7117324218749994 1.0402500000000001 Q 3.7342324218749994 1.0155 3.716232421874999 0.9705 M 4.868202392578124 0.009000000000000119 Q 4.898202392578124 0.009000000000000119 4.942452392578124 0.01200000000000001 Q 4.986702392578124 0.015000000000000124 5.033952392578124 0.0202500000000001 Q 5.081202392578124 0.025500000000000078 5.1164523925781245 0.030750000000000055 Q 5.151702392578124 0.03600000000000003 5.1652023925781245 0.04200000000000004 L 5.147202392578124 0.24450000000000005 L 5.132202392578124 0.24450000000000005 Q 5.132202392578124 0.1665000000000001 5.074452392578124 0.11925000000000008 Q 5.016702392578124 0.07200000000000006 4.920702392578124 0.07200000000000006 Q 4.833702392578124 0.07200000000000006 4.780452392578124 0.1140000000000001 Q 4.727202392578124 0.15600000000000003 4.724202392578124 0.21600000000000008 Q 4.722702392578125 0.261 4.752702392578124 0.29400000000000004 Q 4.782702392578124 0.32700000000000007 4.829202392578124 0.35550000000000004 L 5.115702392578124 0.5415000000000001 Q 5.184702392578124 0.5805 5.219952392578124 0.6435000000000001 Q 5.255202392578124 0.7065000000000001 5.250702392578124 0.7905000000000001 Q 5.243202392578124 0.9375 5.138202392578124 1.01925 Q 5.033202392578124 1.101 4.853202392578124 1.101 Q 4.787202392578124 1.101 4.724952392578124 1.08975 Q 4.662702392578124 1.0785 4.614702392578124 1.0582500000000001 Q 4.566702392578124 1.038 4.538202392578124 1.0095 Q 4.526202392578124 0.9765 4.527702392578124 0.93 Q 4.529202392578124 0.8835000000000001 4.541952392578124 0.8355000000000001 Q 4.5547023925781245 0.7875000000000001 4.574202392578124 0.756 L 4.587702392578124 0.756 Q 4.581702392578125 0.8325 4.615452392578124 0.89775 Q 4.6492023925781245 0.9630000000000001 4.714452392578124 1.00125 Q 4.779702392578124 1.0395 4.869702392578124 1.038 Q 4.968702392578124 1.0365 5.0227023925781245 0.9877500000000001 Q 5.076702392578124 0.9390000000000001 5.076702392578124 0.8700000000000001 Q 5.076702392578124 0.8235000000000001 5.048952392578125 0.786 Q 5.021202392578124 0.7485 4.958202392578125 0.7140000000000001 L 4.6957023925781245 0.54 Q 4.616202392578124 0.4950000000000001 4.580202392578125 0.4245000000000001 Q 4.544202392578124 0.3540000000000001 4.553202392578124 0.2715000000000001 Q 4.559202392578124 0.1935 4.598202392578124 0.1342500000000001 Q 4.637202392578124 0.07499999999999996 4.705452392578124 0.04200000000000004 Q 4.773702392578124 0.009000000000000119 4.868202392578124 0.009000000000000119 M 5.166702392578124 0.02400000000000002 L 5.1637023925781245 0.055500000000000105 L 4.986702392578124 0.055500000000000105 L 4.986702392578124 0.02400000000000002 L 5.166702392578124 0.02400000000000002 M 5.712734619140624 0.030000000000000027 L 5.712734619140624 1.08 L 5.487734619140624 1.08 L 5.487734619140624 0.030000000000000027 L 5.712734619140624 0.030000000000000027 M 6.108734619140624 1.0155 L 6.144734619140624 1.08 L 5.708234619140624 1.08 L 5.708234619140624 1.0155 L 6.108734619140624 1.0155 M 6.053234619140624 0.531 L 6.053234619140624 0.5940000000000001 L 5.708234619140624 0.5940000000000001 L 5.708234619140624 0.531 L 6.053234619140624 0.531 M 6.126734619140624 0.030000000000000027 L 6.126734619140624 0.09450000000000003 L 5.708234619140624 0.09450000000000003 L 5.708234619140624 0.030000000000000027 L 6.126734619140624 0.030000000000000027 M 6.218234619140624 0.774 L 6.149234619140624 1.08 L 5.855234619140624 1.08 L 5.909234619140624 1.0155 Q 5.984234619140624 1.0155 6.041234619140624 0.9862500000000001 Q 6.098234619140624 0.9570000000000001 6.1387346191406245 0.9022500000000001 Q 6.179234619140624 0.8475 6.203234619140624 0.774 L 6.218234619140624 0.774 M 6.053234619140624 0.5910000000000001 L 6.053234619140624 0.7350000000000001 L 6.038234619140624 0.7350000000000001 L 6.038234619140624 0.7215 Q 6.038234619140624 0.6675 6.002234619140625 0.6315000000000001 Q 5.966234619140624 0.5955000000000001 5.910734619140624 0.5940000000000001 L 5.910734619140624 0.5910000000000001 L 6.053234619140624 0.5910000000000001 M 6.053234619140624 0.39 L 6.053234619140624 0.534 L 5.910734619140624 0.534 L 5.910734619140624 0.531 Q 5.966234619140624 0.5295000000000001 6.002234619140625 0.49275 Q 6.038234619140624 0.45600000000000007 6.038234619140624 0.402 L 6.038234619140624 0.39 L 6.053234619140624 0.39 M 6.126734619140624 0.09000000000000008 L 6.126734619140624 0.26550000000000007 L 6.111734619140624 0.26550000000000007 L 6.111734619140624 0.24750000000000005 Q 6.111734619140624 0.1785000000000001 6.070484619140624 0.13650000000000007 Q 6.029234619140624 0.09450000000000003 5.958734619140624 0.09300000000000008 L 5.958734619140624 0.09000000000000008 L 6.126734619140624 0.09000000000000008 M 6.126734619140624 0.0030000000000001137 L 6.126734619140624 0.046499999999999986 L 5.943734619140624 0.030000000000000027 Q 5.976734619140624 0.030000000000000027 6.013484619140624 0.025500000000000078 Q 6.050234619140624 0.02100000000000013 6.081734619140624 0.015000000000000124 Q 6.113234619140624 0.009000000000000119 6.126734619140624 0.0030000000000001137 M 5.492234619140624 0.9705 L 5.492234619140624 1.08 L 5.372234619140624 1.08 L 5.372234619140624 1.0650000000000002 Q 5.372234619140624 1.0650000000000002 5.381984619140624 1.0650000000000002 Q 5.391734619140624 1.0650000000000002 5.391734619140624 1.0650000000000002 Q 5.430734619140624 1.0650000000000002 5.458484619140624 1.03725 Q 5.486234619140624 1.0095 5.487734619140624 0.9705 L 5.492234619140624 0.9705 M 5.492234619140624 0.13950000000000007 L 5.487734619140624 0.13950000000000007 Q 5.486234619140624 0.10050000000000003 5.458484619140624 0.07275000000000009 Q 5.430734619140624 0.04500000000000015 5.391734619140624 0.04500000000000015 Q 5.391734619140624 0.04500000000000015 5.381984619140624 0.04500000000000015 Q 5.372234619140624 0.04500000000000015 5.372234619140624 0.04500000000000015 L 5.372234619140624 0.030000000000000027 L 5.492234619140624 0.030000000000000027 L 5.492234619140624 0.13950000000000007 M 6.653220703124999 0.030000000000000027 L 6.653220703124999 1.08 L 6.428220703124999 1.08 L 6.428220703124999 0.030000000000000027 L 6.653220703124999 0.030000000000000027 M 7.049220703124999 1.0155 L 7.085220703124999 1.08 L 6.648720703124999 1.08 L 6.648720703124999 1.0155 L 7.049220703124999 1.0155 M 7.158720703124999 0.774 L 7.089720703124999 1.08 L 6.795720703124999 1.08 L 6.849720703124999 1.0155 Q 6.924720703124999 1.0155 6.981720703124999 0.9862500000000001 Q 7.038720703124999 0.9570000000000001 7.079220703124999 0.9022500000000001 Q 7.119720703124999 0.8475 7.143720703124999 0.774 L 7.158720703124999 0.774 M 6.432720703124999 0.9705 L 6.432720703124999 1.08 L 6.312720703124999 1.08 L 6.312720703124999 1.0650000000000002 Q 6.312720703124999 1.0650000000000002 6.322470703124999 1.0650000000000002 Q 6.332220703124999 1.0650000000000002 6.332220703124999 1.0650000000000002 Q 6.371220703124999 1.0650000000000002 6.398970703124999 1.03725 Q 6.426720703124999 1.0095 6.428220703124999 0.9705 L 6.432720703124999 0.9705 M 6.432720703124999 0.13950000000000007 L 6.428220703124999 0.13950000000000007 Q 6.426720703124999 0.10050000000000003 6.398970703124999 0.07275000000000009 Q 6.371220703124999 0.04500000000000015 6.332220703124999 0.04500000000000015 Q 6.332220703124999 0.04500000000000015 6.322470703124999 0.04500000000000015 Q 6.312720703124999 0.04500000000000015 6.312720703124999 0.04500000000000015 L 6.312720703124999 0.030000000000000027 L 6.432720703124999 0.030000000000000027 L 6.432720703124999 0.13950000000000007 M 6.648720703124999 0.13950000000000007 L 6.648720703124999 0.030000000000000027 L 6.768720703124999 0.030000000000000027 L 6.768720703124999 0.04500000000000015 Q 6.767220703124999 0.04500000000000015 6.758220703124999 0.04500000000000015 Q 6.749220703124999 0.04500000000000015 6.749220703124999 0.04500000000000015 Q 6.710220703124999 0.04500000000000015 6.6824707031249995 0.07275000000000009 Q 6.654720703124999 0.10050000000000003 6.653220703124999 0.13950000000000007 L 6.648720703124999 0.13950000000000007 M 7.568255126953124 0.030000000000000027 L 7.568255126953124 1.08 L 7.343255126953124 1.08 L 7.343255126953124 0.030000000000000027 L 7.568255126953124 0.030000000000000027 M 7.964255126953124 1.0155 L 8.000255126953125 1.08 L 7.563755126953124 1.08 L 7.563755126953124 1.0155 L 7.964255126953124 1.0155 M 8.073755126953124 0.774 L 8.004755126953125 1.08 L 7.710755126953124 1.08 L 7.764755126953124 1.0155 Q 7.839755126953124 1.0155 7.896755126953124 0.9862500000000001 Q 7.953755126953124 0.9570000000000001 7.994255126953124 0.9022500000000001 Q 8.034755126953124 0.8475 8.058755126953123 0.774 L 8.073755126953124 0.774 M 7.347755126953124 0.9705 L 7.347755126953124 1.08 L 7.227755126953124 1.08 L 7.227755126953124 1.0650000000000002 Q 7.227755126953124 1.0650000000000002 7.237505126953124 1.0650000000000002 Q 7.247255126953124 1.0650000000000002 7.247255126953124 1.0650000000000002 Q 7.286255126953124 1.0650000000000002 7.314005126953124 1.03725 Q 7.341755126953124 1.0095 7.343255126953124 0.9705 L 7.347755126953124 0.9705 M 7.347755126953124 0.13950000000000007 L 7.343255126953124 0.13950000000000007 Q 7.341755126953124 0.10050000000000003 7.314005126953124 0.07275000000000009 Q 7.286255126953124 0.04500000000000015 7.247255126953124 0.04500000000000015 Q 7.247255126953124 0.04500000000000015 7.237505126953124 0.04500000000000015 Q 7.227755126953124 0.04500000000000015 7.227755126953124 0.04500000000000015 L 7.227755126953124 0.030000000000000027 L 7.347755126953124 0.030000000000000027 L 7.347755126953124 0.13950000000000007 M 7.563755126953124 0.13950000000000007 L 7.563755126953124 0.030000000000000027 L 7.683755126953124 0.030000000000000027 L 7.683755126953124 0.04500000000000015 Q 7.682255126953124 0.04500000000000015 7.673255126953124 0.04500000000000015 Q 7.664255126953124 0.04500000000000015 7.664255126953124 0.04500000000000015 Q 7.625255126953124 0.04500000000000015 7.597505126953124 0.07275000000000009 Q 7.569755126953124 0.10050000000000003 7.568255126953124 0.13950000000000007 L 7.563755126953124 0.13950000000000007 M 8.50426171875 0.009000000000000119 Q 8.534261718749999 0.009000000000000119 8.57851171875 0.01200000000000001 Q 8.62276171875 0.015000000000000124 8.67001171875 0.0202500000000001 Q 8.71726171875 0.025500000000000078 8.75251171875 0.030750000000000055 Q 8.78776171875 0.03600000000000003 8.80126171875 0.04200000000000004 L 8.78326171875 0.24450000000000005 L 8.76826171875 0.24450000000000005 Q 8.76826171875 0.1665000000000001 8.71051171875 0.11925000000000008 Q 8.65276171875 0.07200000000000006 8.55676171875 0.07200000000000006 Q 8.46976171875 0.07200000000000006 8.41651171875 0.1140000000000001 Q 8.36326171875 0.15600000000000003 8.36026171875 0.21600000000000008 Q 8.35876171875 0.261 8.38876171875 0.29400000000000004 Q 8.41876171875 0.32700000000000007 8.46526171875 0.35550000000000004 L 8.75176171875 0.5415000000000001 Q 8.82076171875 0.5805 8.85601171875 0.6435000000000001 Q 8.89126171875 0.7065000000000001 8.88676171875 0.7905000000000001 Q 8.87926171875 0.9375 8.77426171875 1.01925 Q 8.66926171875 1.101 8.489261718749999 1.101 Q 8.42326171875 1.101 8.36101171875 1.08975 Q 8.29876171875 1.0785 8.25076171875 1.0582500000000001 Q 8.20276171875 1.038 8.17426171875 1.0095 Q 8.162261718749999 0.9765 8.16376171875 0.93 Q 8.16526171875 0.8835000000000001 8.17801171875 0.8355000000000001 Q 8.19076171875 0.7875000000000001 8.210261718749999 0.756 L 8.22376171875 0.756 Q 8.21776171875 0.8325 8.25151171875 0.89775 Q 8.28526171875 0.9630000000000001 8.350511718749999 1.00125 Q 8.41576171875 1.0395 8.50576171875 1.038 Q 8.60476171875 1.0365 8.65876171875 0.9877500000000001 Q 8.71276171875 0.9390000000000001 8.71276171875 0.8700000000000001 Q 8.71276171875 0.8235000000000001 8.68501171875 0.786 Q 8.65726171875 0.7485 8.59426171875 0.7140000000000001 L 8.33176171875 0.54 Q 8.25226171875 0.4950000000000001 8.21626171875 0.4245000000000001 Q 8.18026171875 0.3540000000000001 8.18926171875 0.2715000000000001 Q 8.19526171875 0.1935 8.23426171875 0.1342500000000001 Q 8.27326171875 0.07499999999999996 8.34151171875 0.04200000000000004 Q 8.40976171875 0.009000000000000119 8.50426171875 0.009000000000000119 M 8.80276171875 0.02400000000000002 L 8.79976171875 0.055500000000000105 L 8.62276171875 0.055500000000000105 L 8.62276171875 0.02400000000000002 L 8.80276171875 0.02400000000000002 M 9.87976611328125 1.11 L 9.38326611328125 0.039000000000000146 L 9.65176611328125 0.039000000000000146 L 9.97126611328125 0.8205 L 9.87976611328125 1.11 M 9.87976611328125 1.11 L 9.87526611328125 0.927 L 10.25626611328125 0.034499999999999975 L 10.36426611328125 0.034499999999999975 L 9.966766113281249 0.9135000000000001 Q 9.963766113281249 0.9225000000000001 9.95251611328125 0.94725 Q 9.94126611328125 0.9720000000000001 9.92776611328125 1.0035 Q 9.91426611328125 1.0350000000000001 9.90451611328125 1.0642500000000001 Q 9.89476611328125 1.0935000000000001 9.89326611328125 1.11 L 9.87976611328125 1.11 M 10.21126611328125 0.13950000000000007 Q 10.23076611328125 0.09450000000000003 10.20676611328125 0.06974999999999998 Q 10.18276611328125 0.04500000000000015 10.154266113281249 0.04500000000000015 L 10.14076611328125 0.04500000000000015 L 10.14076611328125 0.030000000000000027 L 10.46176611328125 0.030000000000000027 L 10.46176611328125 0.04500000000000015 Q 10.46176611328125 0.04500000000000015 10.45501611328125 0.04500000000000015 Q 10.44826611328125 0.04500000000000015 10.44826611328125 0.04500000000000015 Q 10.41526611328125 0.04500000000000015 10.37851611328125 0.06675000000000009 Q 10.341766113281249 0.08850000000000002 10.31776611328125 0.13950000000000007 L 10.21126611328125 0.13950000000000007 M 9.69376611328125 0.13950000000000007 L 9.42976611328125 0.13950000000000007 Q 9.40576611328125 0.08850000000000002 9.36901611328125 0.06675000000000009 Q 9.33226611328125 0.04500000000000015 9.29776611328125 0.04500000000000015 Q 9.29776611328125 0.04500000000000015 9.29176611328125 0.04500000000000015 Q 9.28576611328125 0.04500000000000015 9.28576611328125 0.04500000000000015 L 9.28576611328125 0.030000000000000027 L 9.76276611328125 0.030000000000000027 L 9.76276611328125 0.04500000000000015 L 9.74926611328125 0.04500000000000015 Q 9.72076611328125 0.04500000000000015 9.69901611328125 0.06974999999999998 Q 9.67726611328125 0.09450000000000003 9.69376611328125 0.13950000000000007 M 10.821807128906249 0.030000000000000027 L 10.821807128906249 1.08 L 10.59680712890625 1.08 L 10.59680712890625 0.030000000000000027 L 10.821807128906249 0.030000000000000027 M 10.60130712890625 0.9705 L 10.60130712890625 1.08 L 10.48130712890625 1.08 L 10.48130712890625 1.0650000000000002 Q 10.48130712890625 1.0650000000000002 10.491057128906249 1.0650000000000002 Q 10.50080712890625 1.0650000000000002 10.50080712890625 1.0650000000000002 Q 10.539807128906249 1.0650000000000002 10.56755712890625 1.03725 Q 10.59530712890625 1.0095 10.59680712890625 0.9705 L 10.60130712890625 0.9705 M 10.60130712890625 0.13950000000000007 L 10.59680712890625 0.13950000000000007 Q 10.59530712890625 0.10050000000000003 10.56755712890625 0.07275000000000009 Q 10.539807128906249 0.04500000000000015 10.50080712890625 0.04500000000000015 Q 10.50080712890625 0.04500000000000015 10.491057128906249 0.04500000000000015 Q 10.48130712890625 0.04500000000000015 10.48130712890625 0.04500000000000015 L 10.48130712890625 0.030000000000000027 L 10.60130712890625 0.030000000000000027 L 10.60130712890625 0.13950000000000007 M 10.81730712890625 0.9705 L 10.821807128906249 0.9705 Q 10.823307128906249 1.0095 10.85105712890625 1.03725 Q 10.87880712890625 1.0650000000000002 10.917807128906249 1.0650000000000002 Q 10.917807128906249 1.0650000000000002 10.92680712890625 1.0650000000000002 Q 10.93580712890625 1.0650000000000002 10.93730712890625 1.0650000000000002 L 10.93730712890625 1.08 L 10.81730712890625 1.08 L 10.81730712890625 0.9705 M 10.81730712890625 0.13950000000000007 L 10.81730712890625 0.030000000000000027 L 10.93730712890625 0.030000000000000027 L 10.93730712890625 0.04500000000000015 Q 10.93580712890625 0.04500000000000015 10.92680712890625 0.04500000000000015 Q 10.917807128906249 0.04500000000000015 10.917807128906249 0.04500000000000015 Q 10.87880712890625 0.04500000000000015 10.85105712890625 0.07275000000000009 Q 10.823307128906249 0.10050000000000003 10.821807128906249 0.13950000000000007 L 10.81730712890625 0.13950000000000007" fill="#212245" fill-rule="nonzero"></path></g><g><path d=" M 0.1515 1.4669249999999998 L 0.1515 1.991925 L 0.10275000000000001 1.991925 L 0.10275000000000001 1.4669249999999998 L 0.1515 1.4669249999999998 M 0.354 1.968675 L 0.354 1.991925 L 0.14925 1.991925 L 0.14925 1.968675 L 0.354 1.968675 M 0.39975 1.870425 L 0.35625 1.991925 L 0.23175 1.991925 L 0.25875 1.968675 Q 0.2985 1.968675 0.323625 1.9563 Q 0.34875 1.943925 0.3645 1.921425 Q 0.38025000000000003 1.898925 0.39225 1.870425 L 0.39975 1.870425 M 0.105 1.9371749999999999 L 0.105 1.991925 L 0.045 1.991925 L 0.045 1.9844249999999999 Q 0.045 1.9844249999999999 0.049875 1.9844249999999999 Q 0.05475 1.9844249999999999 0.05475 1.9844249999999999 Q 0.07425 1.9844249999999999 0.088125 1.97055 Q 0.10200000000000001 1.956675 0.10275000000000001 1.9371749999999999 L 0.105 1.9371749999999999 M 0.105 1.5216749999999999 L 0.10275000000000001 1.5216749999999999 Q 0.10200000000000001 1.5021749999999998 0.088125 1.4883 Q 0.07425 1.474425 0.05475 1.474425 Q 0.05475 1.474425 0.049875 1.474425 Q 0.045 1.474425 0.045 1.474425 L 0.045 1.4669249999999998 L 0.105 1.4669249999999998 L 0.105 1.5216749999999999 M 0.14925 1.5216749999999999 L 0.14925 1.4669249999999998 L 0.20925 1.4669249999999998 L 0.20925 1.474425 Q 0.2085 1.474425 0.20400000000000001 1.474425 Q 0.1995 1.474425 0.1995 1.474425 Q 0.18 1.474425 0.166125 1.4883 Q 0.15225 1.5021749999999998 0.1515 1.5216749999999999 L 0.14925 1.5216749999999999 M 0.561747802734375 1.4669249999999998 L 0.561747802734375 1.991925 L 0.512997802734375 1.991925 L 0.512997802734375 1.4669249999999998 L 0.561747802734375 1.4669249999999998 M 0.515247802734375 1.9371749999999999 L 0.515247802734375 1.991925 L 0.455247802734375 1.991925 L 0.455247802734375 1.9844249999999999 Q 0.455247802734375 1.9844249999999999 0.460122802734375 1.9844249999999999 Q 0.464997802734375 1.9844249999999999 0.464997802734375 1.9844249999999999 Q 0.484497802734375 1.9844249999999999 0.498372802734375 1.97055 Q 0.512247802734375 1.956675 0.512997802734375 1.9371749999999999 L 0.515247802734375 1.9371749999999999 M 0.515247802734375 1.5216749999999999 L 0.512997802734375 1.5216749999999999 Q 0.512247802734375 1.5021749999999998 0.498372802734375 1.4883 Q 0.484497802734375 1.474425 0.464997802734375 1.474425 Q 0.464997802734375 1.474425 0.460122802734375 1.474425 Q 0.455247802734375 1.474425 0.455247802734375 1.474425 L 0.455247802734375 1.4669249999999998 L 0.515247802734375 1.4669249999999998 L 0.515247802734375 1.5216749999999999 M 0.559497802734375 1.9371749999999999 L 0.561747802734375 1.9371749999999999 Q 0.562497802734375 1.956675 0.576372802734375 1.97055 Q 0.5902478027343749 1.9844249999999999 0.609747802734375 1.9844249999999999 Q 0.609747802734375 1.9844249999999999 0.614247802734375 1.9844249999999999 Q 0.618747802734375 1.9844249999999999 0.6194978027343749 1.9844249999999999 L 0.6194978027343749 1.991925 L 0.559497802734375 1.991925 L 0.559497802734375 1.9371749999999999 M 0.559497802734375 1.5216749999999999 L 0.559497802734375 1.4669249999999998 L 0.6194978027343749 1.4669249999999998 L 0.6194978027343749 1.474425 Q 0.618747802734375 1.474425 0.614247802734375 1.474425 Q 0.609747802734375 1.474425 0.609747802734375 1.474425 Q 0.5902478027343749 1.474425 0.576372802734375 1.4883 Q 0.562497802734375 1.5021749999999998 0.561747802734375 1.5216749999999999 L 0.559497802734375 1.5216749999999999 M 0.93900732421875 2.002425 L 0.70650732421875 1.471425 L 0.77025732421875 1.471425 L 0.95400732421875 1.9311749999999999 L 0.93900732421875 2.002425 M 0.93900732421875 2.002425 L 0.93225732421875 1.949925 L 1.13175732421875 1.469175 L 1.17675732421875 1.469175 L 0.97350732421875 1.9251749999999999 Q 0.97350732421875 1.9251749999999999 0.96938232421875 1.93455 Q 0.96525732421875 1.943925 0.95963232421875 1.957425 Q 0.95400732421875 1.970925 0.94988232421875 1.9836749999999999 Q 0.94575732421875 1.996425 0.94575732421875 2.002425 L 0.93900732421875 2.002425 M 1.11075732421875 1.5209249999999999 Q 1.11900732421875 1.498425 1.10775732421875 1.4864249999999999 Q 1.09650732421875 1.474425 1.0822573242187499 1.474425 L 1.07550732421875 1.474425 L 1.07550732421875 1.4669249999999998 L 1.22625732421875 1.4669249999999998 L 1.22625732421875 1.474425 Q 1.22625732421875 1.474425 1.2228823242187499 1.474425 Q 1.21950732421875 1.474425 1.21950732421875 1.474425 Q 1.20300732421875 1.474425 1.18425732421875 1.4853 Q 1.16550732421875 1.496175 1.15350732421875 1.5216749999999999 L 1.11075732421875 1.5209249999999999 M 0.79050732421875 1.5209249999999999 L 0.72825732421875 1.5216749999999999 Q 0.71700732421875 1.496175 0.69825732421875 1.4853 Q 0.67950732421875 1.474425 0.66225732421875 1.474425 Q 0.66225732421875 1.474425 0.65925732421875 1.474425 Q 0.65625732421875 1.474425 0.65625732421875 1.474425 L 0.65625732421875 1.4669249999999998 L 0.82500732421875 1.4669249999999998 L 0.82500732421875 1.474425 L 0.81825732421875 1.474425 Q 0.80400732421875 1.474425 0.79313232421875 1.4864249999999999 Q 0.78225732421875 1.498425 0.79050732421875 1.5209249999999999 M 1.37025 1.4669249999999998 L 1.37025 1.991925 L 1.3215 1.991925 L 1.3215 1.4669249999999998 L 1.37025 1.4669249999999998 M 1.57275 1.968675 L 1.57275 1.991925 L 1.3679999999999999 1.991925 L 1.3679999999999999 1.968675 L 1.57275 1.968675 M 1.5405 1.721925 L 1.5405 1.744425 L 1.3679999999999999 1.744425 L 1.3679999999999999 1.721925 L 1.5405 1.721925 M 1.57275 1.4669249999999998 L 1.57275 1.4901749999999998 L 1.3679999999999999 1.4901749999999998 L 1.3679999999999999 1.4669249999999998 L 1.57275 1.4669249999999998 M 1.6185 1.870425 L 1.575 1.991925 L 1.4505 1.991925 L 1.4775 1.968675 Q 1.51725 1.968675 1.542375 1.9563 Q 1.5675 1.943925 1.58325 1.921425 Q 1.599 1.898925 1.611 1.870425 L 1.6185 1.870425 M 1.5405 1.742925 L 1.5405 1.792425 L 1.533 1.792425 L 1.533 1.781175 Q 1.533 1.766175 1.5225 1.7552999999999999 Q 1.512 1.744425 1.4969999999999999 1.744425 L 1.4969999999999999 1.742925 L 1.5405 1.742925 M 1.5405 1.6739249999999999 L 1.5405 1.723425 L 1.4969999999999999 1.723425 L 1.4969999999999999 1.721925 Q 1.512 1.721175 1.5225 1.7103 Q 1.533 1.699425 1.533 1.684425 L 1.533 1.6739249999999999 L 1.5405 1.6739249999999999 M 1.57275 1.487925 L 1.57275 1.547925 L 1.56525 1.547925 L 1.56525 1.534425 Q 1.56525 1.516425 1.5525 1.5032999999999999 Q 1.53975 1.4901749999999998 1.521 1.4894249999999998 L 1.521 1.487925 L 1.57275 1.487925 M 1.57275 1.453425 L 1.57275 1.475175 L 1.48125 1.4669249999999998 Q 1.49775 1.4669249999999998 1.516125 1.464675 Q 1.5345 1.462425 1.5502500000000001 1.459425 Q 1.566 1.4564249999999999 1.57275 1.453425 M 1.32375 1.9371749999999999 L 1.32375 1.991925 L 1.26375 1.991925 L 1.26375 1.9844249999999999 Q 1.26375 1.9844249999999999 1.2686250000000001 1.9844249999999999 Q 1.2735 1.9844249999999999 1.2735 1.9844249999999999 Q 1.293 1.9844249999999999 1.306875 1.97055 Q 1.32075 1.956675 1.3215 1.9371749999999999 L 1.32375 1.9371749999999999 M 1.32375 1.5216749999999999 L 1.3215 1.5216749999999999 Q 1.3215 1.5021749999999998 1.30725 1.4883 Q 1.293 1.474425 1.2735 1.474425 Q 1.2735 1.474425 1.269 1.474425 Q 1.2645 1.474425 1.2645 1.474425 L 1.26375 1.4669249999999998 L 1.32375 1.4669249999999998 L 1.32375 1.5216749999999999 M 2.1607697753906248 1.4564249999999999 Q 2.241019775390625 1.4564249999999999 2.3017697753906248 1.4905499999999998 Q 2.362519775390625 1.524675 2.396644775390625 1.586175 Q 2.430769775390625 1.647675 2.430769775390625 1.729425 Q 2.430769775390625 1.811175 2.396644775390625 1.8726749999999999 Q 2.362519775390625 1.934175 2.3017697753906248 1.9683 Q 2.241019775390625 2.002425 2.1607697753906248 2.002425 Q 2.081269775390625 2.002425 2.0205197753906248 1.9683 Q 1.959769775390625 1.934175 1.925644775390625 1.8726749999999999 Q 1.891519775390625 1.811175 1.891519775390625 1.729425 Q 1.891519775390625 1.647675 1.925644775390625 1.586175 Q 1.959769775390625 1.524675 2.0205197753906248 1.4905499999999998 Q 2.081269775390625 1.4564249999999999 2.1607697753906248 1.4564249999999999 M 2.1607697753906248 1.979925 Q 2.224519775390625 1.979925 2.272144775390625 1.9484249999999999 Q 2.319769775390625 1.916925 2.346394775390625 1.8606749999999999 Q 2.373019775390625 1.804425 2.373019775390625 1.729425 Q 2.373019775390625 1.6544249999999998 2.346394775390625 1.598175 Q 2.319769775390625 1.541925 2.272144775390625 1.510425 Q 2.224519775390625 1.4789249999999998 2.1607697753906248 1.4789249999999998 Q 2.097769775390625 1.4789249999999998 2.050144775390625 1.510425 Q 2.002519775390625 1.541925 1.975894775390625 1.598175 Q 1.949269775390625 1.6544249999999998 1.949269775390625 1.729425 Q 1.949269775390625 1.804425 1.975894775390625 1.8606749999999999 Q 2.002519775390625 1.916925 2.050144775390625 1.9484249999999999 Q 2.097769775390625 1.979925 2.1607697753906248 1.979925 M 2.5470146484375 1.4556749999999998 L 2.9827646484375 1.920675 L 2.9895146484375 2.002425 L 2.5537646484375 1.5381749999999998 L 2.5470146484375 1.4556749999999998 M 2.5485146484375 1.938675 L 2.5485146484375 1.991925 L 2.4862646484375 1.991925 L 2.4862646484375 1.9844249999999999 Q 2.4862646484375 1.9844249999999999 2.4930146484375 1.9844249999999999 Q 2.4997646484375 1.9844249999999999 2.5005146484375 1.9844249999999999 Q 2.5192646484375 1.9844249999999999 2.5327646484375 1.970925 Q 2.5462646484375 1.957425 2.5462646484375 1.938675 L 2.5485146484375 1.938675 M 2.5807646484375 1.938675 Q 2.5807646484375 1.957425 2.5942646484375 1.970925 Q 2.6077646484375 1.9844249999999999 2.6265146484375 1.9844249999999999 Q 2.6272646484375 1.9844249999999999 2.6340146484374998 1.9844249999999999 Q 2.6407646484375 1.9844249999999999 2.6407646484375 1.9844249999999999 L 2.6407646484375 1.991925 L 2.5785146484375 1.991925 L 2.5785146484375 1.938675 L 2.5807646484375 1.938675 M 2.5470146484375 1.4556749999999998 L 2.5800146484375 1.4976749999999999 L 2.5807646484375 1.991925 L 2.5462646484375 1.991925 L 2.5462646484375 1.5494249999999998 Q 2.5462646484375 1.511175 2.5428896484375 1.483425 Q 2.5395146484375 1.4556749999999998 2.5395146484375 1.4556749999999998 L 2.5470146484375 1.4556749999999998 M 2.9895146484375 1.4669249999999998 L 2.9895146484375 1.906425 Q 2.9895146484375 1.930425 2.9910146484375 1.95255 Q 2.9925146484375 1.974675 2.9943896484375 1.98855 Q 2.9962646484375 2.002425 2.9962646484375 2.002425 L 2.9895146484375 2.002425 L 2.9557646484375 1.962675 L 2.9557646484375 1.4669249999999998 L 2.9895146484375 1.4669249999999998 M 3.0495146484375 1.4669249999999998 L 3.0495146484375 1.474425 Q 3.0495146484375 1.474425 3.0427646484375 1.474425 Q 3.0360146484375 1.474425 3.0360146484375 1.474425 Q 3.0172646484375 1.474425 3.0037646484375 1.48755 Q 2.9902646484375 1.500675 2.9895146484375 1.520175 L 2.9872646484375 1.520175 L 2.9872646484375 1.4669249999999998 L 3.0495146484375 1.4669249999999998 M 2.8950146484375 1.4669249999999998 L 2.9572646484375 1.4669249999999998 L 2.9572646484375 1.520175 L 2.9557646484375 1.520175 Q 2.9550146484375 1.500675 2.9418896484375 1.48755 Q 2.9287646484375 1.474425 2.9092646484375 1.474425 Q 2.9092646484375 1.474425 2.9025146484375 1.474425 Q 2.8957646484375 1.474425 2.8950146484375 1.474425 L 2.8950146484375 1.4669249999999998 M 3.5460172119140623 2.002425 L 3.3135172119140623 1.471425 L 3.3772672119140625 1.471425 L 3.5610172119140624 1.9311749999999999 L 3.5460172119140623 2.002425 M 3.5460172119140623 2.002425 L 3.5392672119140625 1.949925 L 3.7387672119140625 1.469175 L 3.7837672119140624 1.469175 L 3.5805172119140627 1.9251749999999999 Q 3.5805172119140627 1.9251749999999999 3.5763922119140625 1.93455 Q 3.5722672119140624 1.943925 3.5666422119140626 1.957425 Q 3.5610172119140624 1.970925 3.5568922119140627 1.9836749999999999 Q 3.5527672119140625 1.996425 3.5527672119140625 2.002425 L 3.5460172119140623 2.002425 M 3.7177672119140626 1.5209249999999999 Q 3.7260172119140624 1.498425 3.7147672119140625 1.4864249999999999 Q 3.7035172119140625 1.474425 3.6892672119140624 1.474425 L 3.6825172119140626 1.474425 L 3.6825172119140626 1.4669249999999998 L 3.8332672119140625 1.4669249999999998 L 3.8332672119140625 1.474425 Q 3.8332672119140625 1.474425 3.8298922119140624 1.474425 Q 3.8265172119140622 1.474425 3.8265172119140622 1.474425 Q 3.8100172119140625 1.474425 3.7912672119140627 1.4853 Q 3.7725172119140624 1.496175 3.7605172119140624 1.5216749999999999 L 3.7177672119140626 1.5209249999999999 M 3.3975172119140624 1.5209249999999999 L 3.3352672119140623 1.5216749999999999 Q 3.3240172119140623 1.496175 3.3052672119140625 1.4853 Q 3.2865172119140627 1.474425 3.2692672119140624 1.474425 Q 3.2692672119140624 1.474425 3.2662672119140623 1.474425 Q 3.2632672119140627 1.474425 3.2632672119140627 1.474425 L 3.2632672119140627 1.4669249999999998 L 3.4320172119140624 1.4669249999999998 L 3.4320172119140624 1.474425 L 3.4252672119140626 1.474425 Q 3.4110172119140625 1.474425 3.4001422119140625 1.4864249999999999 Q 3.3892672119140625 1.498425 3.3975172119140624 1.5209249999999999 M 4.016274536132812 1.4564249999999999 L 4.2382745361328125 1.987425 L 4.174524536132813 1.987425 L 4.001274536132812 1.527675 L 4.016274536132812 1.4564249999999999 M 3.8550245361328126 1.9371749999999999 Q 3.8497745361328124 1.952175 3.8535245361328125 1.962675 Q 3.8572745361328127 1.973175 3.8658995361328126 1.9788 Q 3.8745245361328124 1.9844249999999999 3.8835245361328123 1.9844249999999999 L 3.8902745361328126 1.9844249999999999 L 3.8902745361328126 1.991925 L 3.7395245361328127 1.991925 L 3.7395245361328127 1.9844249999999999 Q 3.7395245361328127 1.9844249999999999 3.7428995361328123 1.9844249999999999 Q 3.7462745361328125 1.9844249999999999 3.7462745361328125 1.9844249999999999 Q 3.7635245361328127 1.9844249999999999 3.7818995361328125 1.97355 Q 3.8002745361328123 1.962675 3.8122745361328123 1.9371749999999999 L 3.8550245361328126 1.9371749999999999 M 4.016274536132812 1.4564249999999999 L 4.023024536132812 1.508925 L 3.8347745361328127 1.9896749999999999 L 3.7897745361328123 1.9896749999999999 L 3.9817745361328125 1.533675 Q 3.9817745361328125 1.533675 3.9858995361328127 1.5243 Q 3.9900245361328124 1.5149249999999999 3.9956495361328126 1.501425 Q 4.001274536132812 1.487925 4.0053995361328125 1.475175 Q 4.009524536132813 1.462425 4.009524536132813 1.4564249999999999 L 4.016274536132812 1.4564249999999999 M 4.1220245361328125 1.787175 L 4.1220245361328125 1.809675 L 3.8872745361328125 1.809675 L 3.8872745361328125 1.787175 L 4.1220245361328125 1.787175 M 4.155774536132813 1.9371749999999999 L 4.217274536132813 1.9371749999999999 Q 4.228524536132812 1.962675 4.247274536132813 1.97355 Q 4.266024536132813 1.9844249999999999 4.283274536132812 1.9844249999999999 Q 4.283274536132812 1.9844249999999999 4.2862745361328125 1.9844249999999999 Q 4.289274536132813 1.9844249999999999 4.289274536132813 1.9844249999999999 L 4.289274536132813 1.991925 L 4.120524536132812 1.991925 L 4.120524536132812 1.9844249999999999 L 4.127274536132813 1.9844249999999999 Q 4.141524536132812 1.9844249999999999 4.152774536132813 1.9720499999999999 Q 4.164024536132812 1.9596749999999998 4.155774536132813 1.9371749999999999 M 4.375505859375 1.4556749999999998 L 4.811255859375 1.920675 L 4.818005859375 2.002425 L 4.382255859375 1.5381749999999998 L 4.375505859375 1.4556749999999998 M 4.377005859375 1.938675 L 4.377005859375 1.991925 L 4.314755859375 1.991925 L 4.314755859375 1.9844249999999999 Q 4.314755859375 1.9844249999999999 4.321505859375 1.9844249999999999 Q 4.328255859375 1.9844249999999999 4.329005859375 1.9844249999999999 Q 4.347755859375 1.9844249999999999 4.361255859375 1.970925 Q 4.374755859375 1.957425 4.374755859375 1.938675 L 4.377005859375 1.938675 M 4.409255859375 1.938675 Q 4.409255859375 1.957425 4.422755859375 1.970925 Q 4.436255859375 1.9844249999999999 4.455005859375 1.9844249999999999 Q 4.455755859375 1.9844249999999999 4.462505859375 1.9844249999999999 Q 4.469255859375 1.9844249999999999 4.469255859375 1.9844249999999999 L 4.469255859375 1.991925 L 4.407005859375 1.991925 L 4.407005859375 1.938675 L 4.409255859375 1.938675 M 4.375505859375 1.4556749999999998 L 4.408505859375 1.4976749999999999 L 4.409255859375 1.991925 L 4.374755859375 1.991925 L 4.374755859375 1.5494249999999998 Q 4.374755859375 1.511175 4.371380859375 1.483425 Q 4.368005859375 1.4556749999999998 4.368005859375 1.4556749999999998 L 4.375505859375 1.4556749999999998 M 4.818005859375 1.4669249999999998 L 4.818005859375 1.906425 Q 4.818005859375 1.930425 4.819505859375 1.95255 Q 4.821005859375 1.974675 4.822880859375 1.98855 Q 4.824755859375 2.002425 4.824755859375 2.002425 L 4.818005859375 2.002425 L 4.7842558593749995 1.962675 L 4.7842558593749995 1.4669249999999998 L 4.818005859375 1.4669249999999998 M 4.8780058593749995 1.4669249999999998 L 4.8780058593749995 1.474425 Q 4.8780058593749995 1.474425 4.871255859375 1.474425 Q 4.864505859375 1.474425 4.864505859375 1.474425 Q 4.845755859375 1.474425 4.832255859375 1.48755 Q 4.818755859375 1.500675 4.818005859375 1.520175 L 4.815755859375 1.520175 L 4.815755859375 1.4669249999999998 L 4.8780058593749995 1.4669249999999998 M 4.723505859375 1.4669249999999998 L 4.785755859375 1.4669249999999998 L 4.785755859375 1.520175 L 4.7842558593749995 1.520175 Q 4.783505859375 1.500675 4.770380859375 1.48755 Q 4.757255859375 1.474425 4.7377558593749995 1.474425 Q 4.7377558593749995 1.474425 4.731005859375 1.474425 Q 4.724255859375 1.474425 4.723505859375 1.474425 L 4.723505859375 1.4669249999999998 M 5.429243774414062 1.7729249999999999 L 5.420243774414063 1.8906749999999999 Q 5.400743774414062 1.922925 5.371118774414063 1.9480499999999998 Q 5.3414937744140625 1.973175 5.301368774414063 1.9878 Q 5.261243774414062 2.002425 5.209493774414063 2.002425 Q 5.1314937744140625 2.001675 5.070743774414063 1.967925 Q 5.009993774414062 1.934175 4.975868774414063 1.8730499999999999 Q 4.941743774414062 1.811925 4.941743774414062 1.728675 Q 4.941743774414062 1.646925 4.975493774414063 1.5857999999999999 Q 5.009243774414062 1.524675 5.070368774414063 1.4905499999999998 Q 5.1314937744140625 1.4564249999999999 5.213993774414062 1.4564249999999999 Q 5.269493774414062 1.4564249999999999 5.314118774414062 1.47105 Q 5.358743774414062 1.485675 5.391743774414063 1.507425 L 5.406743774414062 1.613175 L 5.399993774414062 1.613175 Q 5.383493774414062 1.547175 5.332493774414062 1.51305 Q 5.281493774414063 1.4789249999999998 5.213993774414062 1.4789249999999998 Q 5.147993774414062 1.4789249999999998 5.099618774414062 1.51005 Q 5.051243774414062 1.541175 5.024618774414063 1.5970499999999999 Q 4.997993774414063 1.652925 4.997993774414063 1.727925 Q 4.997993774414063 1.8029249999999999 5.024618774414063 1.859175 Q 5.051243774414062 1.915425 5.098868774414062 1.946925 Q 5.146493774414062 1.9784249999999999 5.209493774414063 1.979925 Q 5.262743774414062 1.979925 5.308118774414062 1.9600499999999998 Q 5.353493774414062 1.940175 5.384243774414062 1.8948 Q 5.414993774414063 1.8494249999999999 5.423243774414063 1.7729249999999999 L 5.429243774414062 1.7729249999999999 M 5.788501098632812 1.4564249999999999 Q 5.868751098632813 1.4564249999999999 5.929501098632812 1.4905499999999998 Q 5.990251098632813 1.524675 6.024376098632812 1.586175 Q 6.058501098632813 1.647675 6.058501098632813 1.729425 Q 6.058501098632813 1.811175 6.024376098632812 1.8726749999999999 Q 5.990251098632813 1.934175 5.929501098632812 1.9683 Q 5.868751098632813 2.002425 5.788501098632812 2.002425 Q 5.709001098632813 2.002425 5.648251098632812 1.9683 Q 5.587501098632813 1.934175 5.553376098632812 1.8726749999999999 Q 5.519251098632813 1.811175 5.519251098632813 1.729425 Q 5.519251098632813 1.647675 5.553376098632812 1.586175 Q 5.587501098632813 1.524675 5.648251098632812 1.4905499999999998 Q 5.709001098632813 1.4564249999999999 5.788501098632812 1.4564249999999999 M 5.788501098632812 1.979925 Q 5.852251098632813 1.979925 5.899876098632813 1.9484249999999999 Q 5.947501098632813 1.916925 5.974126098632812 1.8606749999999999 Q 6.000751098632812 1.804425 6.000751098632812 1.729425 Q 6.000751098632812 1.6544249999999998 5.974126098632812 1.598175 Q 5.947501098632813 1.541925 5.899876098632813 1.510425 Q 5.852251098632813 1.4789249999999998 5.788501098632812 1.4789249999999998 Q 5.7255010986328125 1.4789249999999998 5.6778760986328125 1.510425 Q 5.6302510986328125 1.541925 5.603626098632812 1.598175 Q 5.577001098632812 1.6544249999999998 5.577001098632812 1.729425 Q 5.577001098632812 1.804425 5.603626098632812 1.8606749999999999 Q 5.6302510986328125 1.916925 5.6778760986328125 1.9484249999999999 Q 5.7255010986328125 1.979925 5.788501098632812 1.979925 M 6.221999633789062 1.4669249999999998 L 6.221999633789062 1.7969249999999999 Q 6.221999633789062 1.850925 6.241874633789062 1.892175 Q 6.261749633789062 1.933425 6.297749633789063 1.9563 Q 6.333749633789062 1.979175 6.380999633789062 1.979175 Q 6.431249633789062 1.979175 6.468749633789063 1.957425 Q 6.5062496337890625 1.935675 6.527249633789062 1.89705 Q 6.548249633789062 1.858425 6.548249633789062 1.806675 L 6.548249633789062 1.4669249999999998 L 6.583499633789063 1.4669249999999998 L 6.583499633789063 1.806675 Q 6.583499633789063 1.865175 6.558374633789063 1.90905 Q 6.533249633789063 1.952925 6.487499633789063 1.9776749999999998 Q 6.441749633789063 2.002425 6.380999633789062 2.002425 Q 6.3187496337890625 2.002425 6.2718746337890625 1.9780499999999999 Q 6.2249996337890625 1.953675 6.199124633789062 1.9098 Q 6.173249633789062 1.8659249999999998 6.173249633789062 1.8074249999999998 L 6.173249633789062 1.4669249999999998 L 6.221999633789062 1.4669249999999998 M 6.175499633789062 1.4669249999999998 L 6.175499633789062 1.511925 L 6.173249633789062 1.511925 Q 6.173249633789062 1.495425 6.161624633789063 1.484925 Q 6.149999633789062 1.474425 6.133499633789063 1.474425 Q 6.133499633789063 1.474425 6.127499633789062 1.474425 Q 6.121499633789062 1.474425 6.121499633789062 1.474425 L 6.121499633789062 1.4669249999999998 L 6.175499633789062 1.4669249999999998 M 6.273749633789063 1.4669249999999998 L 6.273749633789063 1.474425 Q 6.273749633789063 1.474425 6.267749633789062 1.474425 Q 6.261749633789062 1.474425 6.261749633789062 1.474425 Q 6.245249633789062 1.474425 6.233624633789063 1.484925 Q 6.221999633789062 1.495425 6.221999633789062 1.511925 L 6.220499633789062 1.511925 L 6.220499633789062 1.4669249999999998 L 6.273749633789063 1.4669249999999998 M 6.550499633789062 1.4669249999999998 L 6.550499633789062 1.511925 L 6.548249633789062 1.511925 Q 6.548249633789062 1.495425 6.536624633789063 1.484925 Q 6.524999633789062 1.474425 6.508499633789063 1.474425 Q 6.508499633789063 1.474425 6.502499633789062 1.474425 Q 6.496499633789062 1.474425 6.496499633789062 1.474425 L 6.496499633789062 1.4669249999999998 L 6.550499633789062 1.4669249999999998 M 6.635249633789062 1.4669249999999998 L 6.635249633789062 1.474425 Q 6.635249633789062 1.474425 6.629249633789063 1.474425 Q 6.6232496337890625 1.474425 6.6232496337890625 1.474425 Q 6.606749633789063 1.474425 6.595124633789062 1.484925 Q 6.583499633789063 1.495425 6.583499633789063 1.511925 L 6.581999633789063 1.511925 L 6.581999633789063 1.4669249999999998 L 6.635249633789062 1.4669249999999998 M 6.9479794921875 2.002425 L 6.7154794921875 1.471425 L 6.7792294921875 1.471425 L 6.9629794921875 1.9311749999999999 L 6.9479794921875 2.002425 M 6.9479794921875 2.002425 L 6.9412294921875 1.949925 L 7.1407294921875 1.469175 L 7.1857294921875 1.469175 L 6.9824794921875 1.9251749999999999 Q 6.9824794921875 1.9251749999999999 6.9783544921875 1.93455 Q 6.9742294921875 1.943925 6.9686044921875 1.957425 Q 6.9629794921875 1.970925 6.9588544921875 1.9836749999999999 Q 6.9547294921875 1.996425 6.9547294921875 2.002425 L 6.9479794921875 2.002425 M 7.1197294921875 1.5209249999999999 Q 7.1279794921875 1.498425 7.1167294921875 1.4864249999999999 Q 7.1054794921875 1.474425 7.0912294921875 1.474425 L 7.0844794921875 1.474425 L 7.0844794921875 1.4669249999999998 L 7.2352294921875 1.4669249999999998 L 7.2352294921875 1.474425 Q 7.2352294921875 1.474425 7.2318544921875 1.474425 Q 7.2284794921875 1.474425 7.2284794921875 1.474425 Q 7.2119794921875 1.474425 7.1932294921875 1.4853 Q 7.1744794921875 1.496175 7.1624794921875 1.5216749999999999 L 7.1197294921875 1.5209249999999999 M 6.7994794921875 1.5209249999999999 L 6.7372294921875 1.5216749999999999 Q 6.7259794921875 1.496175 6.7072294921875 1.4853 Q 6.6884794921875 1.474425 6.6712294921875 1.474425 Q 6.6712294921875 1.474425 6.6682294921875 1.474425 Q 6.6652294921875 1.474425 6.6652294921875 1.474425 L 6.6652294921875 1.4669249999999998 L 6.8339794921875 1.4669249999999998 L 6.8339794921875 1.474425 L 6.8272294921875 1.474425 Q 6.8129794921875 1.474425 6.8021044921875 1.4864249999999999 Q 6.7912294921875 1.498425 6.7994794921875 1.5209249999999999 M 7.37922216796875 1.4669249999999998 L 7.37922216796875 1.991925 L 7.33047216796875 1.991925 L 7.33047216796875 1.4669249999999998 L 7.37922216796875 1.4669249999999998 M 7.58172216796875 1.968675 L 7.58172216796875 1.991925 L 7.37697216796875 1.991925 L 7.37697216796875 1.968675 L 7.58172216796875 1.968675 M 7.54947216796875 1.721925 L 7.54947216796875 1.744425 L 7.37697216796875 1.744425 L 7.37697216796875 1.721925 L 7.54947216796875 1.721925 M 7.58172216796875 1.4669249999999998 L 7.58172216796875 1.4901749999999998 L 7.37697216796875 1.4901749999999998 L 7.37697216796875 1.4669249999999998 L 7.58172216796875 1.4669249999999998 M 7.62747216796875 1.870425 L 7.58397216796875 1.991925 L 7.45947216796875 1.991925 L 7.48647216796875 1.968675 Q 7.52622216796875 1.968675 7.55134716796875 1.9563 Q 7.57647216796875 1.943925 7.59222216796875 1.921425 Q 7.60797216796875 1.898925 7.61997216796875 1.870425 L 7.62747216796875 1.870425 M 7.54947216796875 1.742925 L 7.54947216796875 1.792425 L 7.54197216796875 1.792425 L 7.54197216796875 1.781175 Q 7.54197216796875 1.766175 7.53147216796875 1.7552999999999999 Q 7.5209721679687505 1.744425 7.50597216796875 1.744425 L 7.50597216796875 1.742925 L 7.54947216796875 1.742925 M 7.54947216796875 1.6739249999999999 L 7.54947216796875 1.723425 L 7.50597216796875 1.723425 L 7.50597216796875 1.721925 Q 7.5209721679687505 1.721175 7.53147216796875 1.7103 Q 7.54197216796875 1.699425 7.54197216796875 1.684425 L 7.54197216796875 1.6739249999999999 L 7.54947216796875 1.6739249999999999 M 7.58172216796875 1.487925 L 7.58172216796875 1.547925 L 7.57422216796875 1.547925 L 7.57422216796875 1.534425 Q 7.57422216796875 1.516425 7.56147216796875 1.5032999999999999 Q 7.54872216796875 1.4901749999999998 7.52997216796875 1.4894249999999998 L 7.52997216796875 1.487925 L 7.58172216796875 1.487925 M 7.58172216796875 1.453425 L 7.58172216796875 1.475175 L 7.49022216796875 1.4669249999999998 Q 7.50672216796875 1.4669249999999998 7.52509716796875 1.464675 Q 7.54347216796875 1.462425 7.55922216796875 1.459425 Q 7.57497216796875 1.4564249999999999 7.58172216796875 1.453425 M 7.33272216796875 1.9371749999999999 L 7.33272216796875 1.991925 L 7.27272216796875 1.991925 L 7.27272216796875 1.9844249999999999 Q 7.27272216796875 1.9844249999999999 7.27759716796875 1.9844249999999999 Q 7.28247216796875 1.9844249999999999 7.28247216796875 1.9844249999999999 Q 7.30197216796875 1.9844249999999999 7.31584716796875 1.97055 Q 7.32972216796875 1.956675 7.33047216796875 1.9371749999999999 L 7.33272216796875 1.9371749999999999 M 7.33272216796875 1.5216749999999999 L 7.33047216796875 1.5216749999999999 Q 7.33047216796875 1.5021749999999998 7.31622216796875 1.4883 Q 7.30197216796875 1.474425 7.28247216796875 1.474425 Q 7.28247216796875 1.474425 7.27797216796875 1.474425 Q 7.27347216796875 1.474425 7.27347216796875 1.474425 L 7.27272216796875 1.4669249999999998 L 7.33272216796875 1.4669249999999998 L 7.33272216796875 1.5216749999999999 M 7.794734619140625 1.4669249999999998 L 7.900484619140625 1.4669249999999998 Q 7.934234619140625 1.4669249999999998 7.961609619140625 1.476675 Q 7.988984619140625 1.4864249999999999 8.007734619140624 1.5048 Q 8.026484619140625 1.523175 8.036609619140625 1.5490499999999998 Q 8.046734619140626 1.574925 8.046734619140626 1.6079249999999998 Q 8.046734619140626 1.6439249999999999 8.029859619140625 1.676925 Q 8.012984619140624 1.709925 7.984109619140625 1.73055 Q 7.955234619140625 1.751175 7.919234619140625 1.751175 Q 7.931984619140625 1.756425 7.946984619140625 1.7725499999999998 Q 7.961984619140625 1.788675 7.973234619140625 1.803675 Q 7.973234619140625 1.803675 7.983359619140625 1.8183 Q 7.9934846191406255 1.832925 8.008859619140624 1.8539249999999998 Q 8.024234619140625 1.874925 8.039984619140625 1.895175 Q 8.055734619140624 1.915425 8.066984619140625 1.927425 Q 8.081984619140625 1.943925 8.096984619140626 1.956675 Q 8.111984619140625 1.969425 8.129609619140625 1.976925 Q 8.147234619140624 1.9844249999999999 8.168984619140625 1.9844249999999999 L 8.168984619140625 1.991925 L 8.127734619140625 1.991925 Q 8.093234619140626 1.991925 8.068109619140625 1.981425 Q 8.042984619140626 1.970925 8.025734619140625 1.95555 Q 8.008484619140624 1.940175 7.996484619140625 1.9259249999999999 Q 7.994234619140625 1.922925 7.984109619140625 1.908675 Q 7.973984619140625 1.894425 7.960109619140625 1.87455 Q 7.9462346191406255 1.8546749999999999 7.932734619140625 1.835175 Q 7.919234619140625 1.815675 7.909484619140625 1.8017999999999998 Q 7.899734619140625 1.787925 7.898234619140625 1.785675 Q 7.883984619140625 1.7669249999999999 7.866734619140625 1.751175 Q 7.849484619140625 1.735425 7.829234619140625 1.735425 L 7.829234619140625 1.727925 Q 7.829234619140625 1.727925 7.840859619140625 1.7283 Q 7.8524846191406255 1.728675 7.868984619140625 1.727925 Q 7.888484619140625 1.727175 7.911734619140625 1.721925 Q 7.934984619140625 1.716675 7.955234619140625 1.700175 Q 7.975484619140625 1.683675 7.985984619140625 1.6499249999999999 Q 7.988234619140625 1.641675 7.989734619140625 1.6293 Q 7.991234619140625 1.616925 7.990484619140625 1.604925 Q 7.989734619140625 1.553925 7.964609619140625 1.52355 Q 7.939484619140625 1.493175 7.897484619140625 1.4909249999999998 Q 7.876484619140625 1.4894249999999998 7.854359619140625 1.4897999999999998 Q 7.832234619140625 1.4901749999999998 7.817234619140625 1.4901749999999998 Q 7.802234619140625 1.4901749999999998 7.802234619140625 1.4901749999999998 Q 7.802234619140625 1.4894249999999998 7.800359619140625 1.4838 Q 7.798484619140625 1.4781749999999998 7.796609619140625 1.47255 Q 7.794734619140625 1.4669249999999998 7.794734619140625 1.4669249999999998 M 7.804484619140625 1.4669249999999998 L 7.804484619140625 1.991925 L 7.755734619140625 1.991925 L 7.755734619140625 1.4669249999999998 L 7.804484619140625 1.4669249999999998 M 7.757984619140625 1.9371749999999999 L 7.757984619140625 1.991925 L 7.697984619140625 1.991925 L 7.697984619140625 1.9844249999999999 Q 7.697984619140625 1.9844249999999999 7.702859619140625 1.9844249999999999 Q 7.707734619140625 1.9844249999999999 7.707734619140625 1.9844249999999999 Q 7.727234619140625 1.9844249999999999 7.741109619140625 1.97055 Q 7.754984619140625 1.956675 7.755734619140625 1.9371749999999999 L 7.757984619140625 1.9371749999999999 M 7.757984619140625 1.5216749999999999 L 7.755734619140625 1.5216749999999999 Q 7.754984619140625 1.5021749999999998 7.741109619140625 1.4883 Q 7.727234619140625 1.474425 7.707734619140625 1.474425 Q 7.707734619140625 1.474425 7.702859619140625 1.474425 Q 7.697984619140625 1.474425 7.697984619140625 1.474425 L 7.697984619140625 1.4669249999999998 L 7.757984619140625 1.4669249999999998 L 7.757984619140625 1.5216749999999999 M 7.802234619140625 1.9371749999999999 L 7.804484619140625 1.9371749999999999 Q 7.804484619140625 1.956675 7.818734619140625 1.97055 Q 7.832984619140625 1.9844249999999999 7.8524846191406255 1.9844249999999999 Q 7.8524846191406255 1.9844249999999999 7.856984619140625 1.9844249999999999 Q 7.861484619140625 1.9844249999999999 7.861484619140625 1.9844249999999999 L 7.861484619140625 1.991925 L 7.802234619140625 1.991925 L 7.802234619140625 1.9371749999999999 M 8.499736083984375 1.4669249999999998 L 8.499736083984375 1.991925 L 8.450986083984375 1.991925 L 8.450986083984375 1.4669249999999998 L 8.499736083984375 1.4669249999999998 M 8.453236083984375 1.9371749999999999 L 8.453236083984375 1.991925 L 8.393236083984375 1.991925 L 8.393236083984375 1.9844249999999999 Q 8.393236083984375 1.9844249999999999 8.398111083984375 1.9844249999999999 Q 8.402986083984375 1.9844249999999999 8.402986083984375 1.9844249999999999 Q 8.422486083984374 1.9844249999999999 8.436361083984375 1.97055 Q 8.450236083984375 1.956675 8.450986083984375 1.9371749999999999 L 8.453236083984375 1.9371749999999999 M 8.453236083984375 1.5216749999999999 L 8.450986083984375 1.5216749999999999 Q 8.450236083984375 1.5021749999999998 8.436361083984375 1.4883 Q 8.422486083984374 1.474425 8.402986083984375 1.474425 Q 8.402986083984375 1.474425 8.398111083984375 1.474425 Q 8.393236083984375 1.474425 8.393236083984375 1.474425 L 8.393236083984375 1.4669249999999998 L 8.453236083984375 1.4669249999999998 L 8.453236083984375 1.5216749999999999 M 8.497486083984375 1.9371749999999999 L 8.499736083984375 1.9371749999999999 Q 8.500486083984375 1.956675 8.514361083984374 1.97055 Q 8.528236083984375 1.9844249999999999 8.547736083984375 1.9844249999999999 Q 8.547736083984375 1.9844249999999999 8.552236083984376 1.9844249999999999 Q 8.556736083984376 1.9844249999999999 8.557486083984376 1.9844249999999999 L 8.557486083984376 1.991925 L 8.497486083984375 1.991925 L 8.497486083984375 1.9371749999999999 M 8.497486083984375 1.5216749999999999 L 8.497486083984375 1.4669249999999998 L 8.557486083984376 1.4669249999999998 L 8.557486083984376 1.474425 Q 8.556736083984376 1.474425 8.552236083984376 1.474425 Q 8.547736083984375 1.474425 8.547736083984375 1.474425 Q 8.528236083984375 1.474425 8.514361083984374 1.4883 Q 8.500486083984375 1.5021749999999998 8.499736083984375 1.5216749999999999 L 8.497486083984375 1.5216749999999999 M 8.78999560546875 1.4564249999999999 Q 8.80199560546875 1.4564249999999999 8.81587060546875 1.457925 Q 8.82974560546875 1.459425 8.84287060546875 1.46205 Q 8.85599560546875 1.464675 8.86687060546875 1.4672999999999998 Q 8.87774560546875 1.469925 8.88374560546875 1.472925 L 8.88374560546875 1.5561749999999999 L 8.87699560546875 1.5561749999999999 Q 8.87699560546875 1.520175 8.85224560546875 1.49955 Q 8.82749560546875 1.4789249999999998 8.79224560546875 1.4789249999999998 Q 8.75099560546875 1.4789249999999998 8.72549560546875 1.5048 Q 8.69999560546875 1.530675 8.69999560546875 1.565175 Q 8.69999560546875 1.5794249999999999 8.70637060546875 1.59855 Q 8.71274560546875 1.617675 8.72999560546875 1.634175 L 8.87774560546875 1.770675 Q 8.90024560546875 1.791675 8.90774560546875 1.815675 Q 8.91524560546875 1.839675 8.91524560546875 1.862175 Q 8.91524560546875 1.9244249999999998 8.87737060546875 1.963425 Q 8.83949560546875 2.002425 8.77499560546875 2.002425 Q 8.75699560546875 2.002425 8.73262060546875 1.998675 Q 8.70824560546875 1.9949249999999998 8.68537060546875 1.98555 Q 8.66249560546875 1.976175 8.64749560546875 1.961175 Q 8.64524560546875 1.9491749999999999 8.64524560546875 1.9311749999999999 Q 8.64524560546875 1.9131749999999998 8.64824560546875 1.8933 Q 8.65124560546875 1.873425 8.65649560546875 1.856925 L 8.66324560546875 1.856925 Q 8.65949560546875 1.895175 8.67299560546875 1.923675 Q 8.68649560546875 1.952175 8.71237060546875 1.9667999999999999 Q 8.73824560546875 1.981425 8.77124560546875 1.979925 Q 8.81249560546875 1.9776749999999998 8.84212060546875 1.95105 Q 8.87174560546875 1.9244249999999998 8.87174560546875 1.879425 Q 8.87174560546875 1.857675 8.86424560546875 1.84005 Q 8.85674560546875 1.822425 8.84249560546875 1.809675 L 8.69849560546875 1.676175 Q 8.67599560546875 1.6551749999999998 8.66699560546875 1.63005 Q 8.65799560546875 1.604925 8.65799560546875 1.583175 Q 8.65799560546875 1.551675 8.67299560546875 1.522425 Q 8.68799560546875 1.493175 8.71762060546875 1.4747999999999999 Q 8.74724560546875 1.4564249999999999 8.78999560546875 1.4564249999999999 M 8.88374560546875 1.463925 L 8.88374560546875 1.4796749999999999 L 8.82674560546875 1.4796749999999999 L 8.82674560546875 1.463925 L 8.88374560546875 1.463925 M 9.109477294921875 1.4669249999999998 L 9.109477294921875 1.991925 L 9.060727294921875 1.991925 L 9.060727294921875 1.4669249999999998 L 9.109477294921875 1.4669249999999998 M 9.311977294921874 1.968675 L 9.311977294921874 1.991925 L 9.107227294921875 1.991925 L 9.107227294921875 1.968675 L 9.311977294921874 1.968675 M 9.357727294921874 1.870425 L 9.314227294921874 1.991925 L 9.189727294921875 1.991925 L 9.216727294921874 1.968675 Q 9.256477294921876 1.968675 9.281602294921875 1.9563 Q 9.306727294921876 1.943925 9.322477294921875 1.921425 Q 9.338227294921875 1.898925 9.350227294921876 1.870425 L 9.357727294921874 1.870425 M 9.062977294921875 1.9371749999999999 L 9.062977294921875 1.991925 L 9.002977294921875 1.991925 L 9.002977294921875 1.9844249999999999 Q 9.002977294921875 1.9844249999999999 9.007852294921875 1.9844249999999999 Q 9.012727294921875 1.9844249999999999 9.012727294921875 1.9844249999999999 Q 9.032227294921874 1.9844249999999999 9.046102294921875 1.97055 Q 9.059977294921875 1.956675 9.060727294921875 1.9371749999999999 L 9.062977294921875 1.9371749999999999 M 9.062977294921875 1.5216749999999999 L 9.060727294921875 1.5216749999999999 Q 9.059977294921875 1.5021749999999998 9.046102294921875 1.4883 Q 9.032227294921874 1.474425 9.012727294921875 1.474425 Q 9.012727294921875 1.474425 9.007852294921875 1.474425 Q 9.002977294921875 1.474425 9.002977294921875 1.474425 L 9.002977294921875 1.4669249999999998 L 9.062977294921875 1.4669249999999998 L 9.062977294921875 1.5216749999999999 M 9.107227294921875 1.5216749999999999 L 9.107227294921875 1.4669249999999998 L 9.167227294921876 1.4669249999999998 L 9.167227294921876 1.474425 Q 9.166477294921876 1.474425 9.161977294921876 1.474425 Q 9.157477294921875 1.474425 9.157477294921875 1.474425 Q 9.137977294921875 1.474425 9.124102294921874 1.4883 Q 9.110227294921875 1.5021749999999998 9.109477294921875 1.5216749999999999 L 9.107227294921875 1.5216749999999999 M 9.648736083984375 1.4564249999999999 L 9.870736083984376 1.987425 L 9.806986083984375 1.987425 L 9.633736083984376 1.527675 L 9.648736083984375 1.4564249999999999 M 9.487486083984376 1.9371749999999999 Q 9.482236083984375 1.952175 9.485986083984375 1.962675 Q 9.489736083984376 1.973175 9.498361083984374 1.9788 Q 9.506986083984375 1.9844249999999999 9.515986083984375 1.9844249999999999 L 9.522736083984375 1.9844249999999999 L 9.522736083984375 1.991925 L 9.371986083984375 1.991925 L 9.371986083984375 1.9844249999999999 Q 9.371986083984375 1.9844249999999999 9.375361083984375 1.9844249999999999 Q 9.378736083984375 1.9844249999999999 9.378736083984375 1.9844249999999999 Q 9.395986083984376 1.9844249999999999 9.414361083984375 1.97355 Q 9.432736083984375 1.962675 9.444736083984376 1.9371749999999999 L 9.487486083984376 1.9371749999999999 M 9.648736083984375 1.4564249999999999 L 9.655486083984375 1.508925 L 9.467236083984375 1.9896749999999999 L 9.422236083984375 1.9896749999999999 L 9.614236083984375 1.533675 Q 9.614236083984375 1.533675 9.618361083984375 1.5243 Q 9.622486083984375 1.5149249999999999 9.628111083984376 1.501425 Q 9.633736083984376 1.487925 9.637861083984376 1.475175 Q 9.641986083984374 1.462425 9.641986083984374 1.4564249999999999 L 9.648736083984375 1.4564249999999999 M 9.754486083984375 1.787175 L 9.754486083984375 1.809675 L 9.519736083984375 1.809675 L 9.519736083984375 1.787175 L 9.754486083984375 1.787175 M 9.788236083984375 1.9371749999999999 L 9.849736083984375 1.9371749999999999 Q 9.860986083984375 1.962675 9.879736083984374 1.97355 Q 9.898486083984375 1.9844249999999999 9.915736083984376 1.9844249999999999 Q 9.915736083984376 1.9844249999999999 9.918736083984374 1.9844249999999999 Q 9.921736083984374 1.9844249999999999 9.921736083984374 1.9844249999999999 L 9.921736083984374 1.991925 L 9.752986083984375 1.991925 L 9.752986083984375 1.9844249999999999 L 9.759736083984375 1.9844249999999999 Q 9.773986083984376 1.9844249999999999 9.785236083984374 1.9720499999999999 Q 9.796486083984375 1.9596749999999998 9.788236083984375 1.9371749999999999 M 10.007967407226563 1.4556749999999998 L 10.443717407226563 1.920675 L 10.450467407226563 2.002425 L 10.014717407226563 1.5381749999999998 L 10.007967407226563 1.4556749999999998 M 10.009467407226563 1.938675 L 10.009467407226563 1.991925 L 9.947217407226562 1.991925 L 9.947217407226562 1.9844249999999999 Q 9.947217407226562 1.9844249999999999 9.953967407226562 1.9844249999999999 Q 9.960717407226563 1.9844249999999999 9.961467407226563 1.9844249999999999 Q 9.980217407226563 1.9844249999999999 9.993717407226562 1.970925 Q 10.007217407226562 1.957425 10.007217407226562 1.938675 L 10.009467407226563 1.938675 M 10.041717407226562 1.938675 Q 10.041717407226562 1.957425 10.055217407226563 1.970925 Q 10.068717407226563 1.9844249999999999 10.087467407226562 1.9844249999999999 Q 10.088217407226562 1.9844249999999999 10.094967407226562 1.9844249999999999 Q 10.101717407226563 1.9844249999999999 10.101717407226563 1.9844249999999999 L 10.101717407226563 1.991925 L 10.039467407226562 1.991925 L 10.039467407226562 1.938675 L 10.041717407226562 1.938675 M 10.007967407226563 1.4556749999999998 L 10.040967407226562 1.4976749999999999 L 10.041717407226562 1.991925 L 10.007217407226562 1.991925 L 10.007217407226562 1.5494249999999998 Q 10.007217407226562 1.511175 10.003842407226562 1.483425 Q 10.000467407226562 1.4556749999999998 10.000467407226562 1.4556749999999998 L 10.007967407226563 1.4556749999999998 M 10.450467407226563 1.4669249999999998 L 10.450467407226563 1.906425 Q 10.450467407226563 1.930425 10.451967407226562 1.95255 Q 10.453467407226562 1.974675 10.455342407226562 1.98855 Q 10.457217407226562 2.002425 10.457217407226562 2.002425 L 10.450467407226563 2.002425 L 10.416717407226562 1.962675 L 10.416717407226562 1.4669249999999998 L 10.450467407226563 1.4669249999999998 M 10.510467407226562 1.4669249999999998 L 10.510467407226562 1.474425 Q 10.510467407226562 1.474425 10.503717407226562 1.474425 Q 10.496967407226563 1.474425 10.496967407226563 1.474425 Q 10.478217407226563 1.474425 10.464717407226562 1.48755 Q 10.451217407226563 1.500675 10.450467407226563 1.520175 L 10.448217407226563 1.520175 L 10.448217407226563 1.4669249999999998 L 10.510467407226562 1.4669249999999998 M 10.355967407226563 1.4669249999999998 L 10.418217407226562 1.4669249999999998 L 10.418217407226562 1.520175 L 10.416717407226562 1.520175 Q 10.415967407226562 1.500675 10.402842407226563 1.48755 Q 10.389717407226563 1.474425 10.370217407226562 1.474425 Q 10.370217407226562 1.474425 10.363467407226562 1.474425 Q 10.356717407226563 1.474425 10.355967407226563 1.474425 L 10.355967407226563 1.4669249999999998 M 10.835962646484376 1.4669249999999998 Q 10.916212646484375 1.4669249999999998 10.976587646484376 1.49955 Q 11.036962646484374 1.532175 11.071087646484376 1.5914249999999999 Q 11.105212646484375 1.650675 11.105212646484375 1.729425 Q 11.105212646484375 1.8081749999999999 11.071087646484376 1.8670499999999999 Q 11.036962646484374 1.9259249999999999 10.976587646484376 1.958925 Q 10.916212646484375 1.991925 10.835962646484376 1.991925 L 10.675462646484375 1.991925 L 10.674712646484375 1.969425 Q 10.674712646484375 1.969425 10.690837646484376 1.969425 Q 10.706962646484374 1.969425 10.731337646484375 1.969425 Q 10.755712646484374 1.969425 10.779712646484375 1.969425 Q 10.803712646484374 1.969425 10.819837646484375 1.969425 Q 10.835962646484376 1.969425 10.835962646484376 1.969425 Q 10.900462646484375 1.969425 10.948087646484375 1.939425 Q 10.995712646484375 1.909425 11.022337646484376 1.8554249999999999 Q 11.048962646484375 1.801425 11.048962646484375 1.729425 Q 11.048962646484375 1.657425 11.022337646484376 1.6034249999999999 Q 10.995712646484375 1.5494249999999998 10.947712646484375 1.519425 Q 10.899712646484375 1.4894249999999998 10.835962646484376 1.4894249999999998 Q 10.835962646484376 1.4894249999999998 10.819087646484375 1.4894249999999998 Q 10.802212646484374 1.4894249999999998 10.777087646484375 1.4894249999999998 Q 10.751962646484374 1.4894249999999998 10.726837646484375 1.4894249999999998 Q 10.701712646484374 1.4894249999999998 10.684462646484375 1.4894249999999998 Q 10.667212646484375 1.4894249999999998 10.667212646484375 1.4894249999999998 L 10.667212646484375 1.4669249999999998 L 10.835962646484376 1.4669249999999998 M 10.688212646484375 1.4669249999999998 L 10.688212646484375 1.991925 L 10.639462646484375 1.991925 L 10.639462646484375 1.4669249999999998 L 10.688212646484375 1.4669249999999998 M 10.641712646484375 1.9371749999999999 L 10.641712646484375 1.991925 L 10.581712646484375 1.991925 L 10.581712646484375 1.9844249999999999 Q 10.581712646484375 1.9844249999999999 10.586587646484375 1.9844249999999999 Q 10.591462646484375 1.9844249999999999 10.591462646484375 1.9844249999999999 Q 10.610962646484374 1.9844249999999999 10.624837646484375 1.97055 Q 10.638712646484375 1.956675 10.639462646484375 1.9371749999999999 L 10.641712646484375 1.9371749999999999 M 10.641712646484375 1.5216749999999999 L 10.639462646484375 1.5216749999999999 Q 10.639462646484375 1.5021749999999998 10.625212646484375 1.4883 Q 10.610962646484374 1.474425 10.591462646484375 1.474425 Q 10.591462646484375 1.474425 10.586962646484375 1.474425 Q 10.582462646484375 1.474425 10.582462646484375 1.474425 L 10.581712646484375 1.4669249999999998 L 10.641712646484375 1.4669249999999998 L 10.641712646484375 1.5216749999999999" fill="#38939d" fill-rule="nonzero"></path></g><g clip-path="url(#SvgjsClipPath1018)"><g clip-path="url(#SvgjsClipPath1016e7bf2e6c-e606-4147-b355-bd826c360e02)"><path d=" M 8.774018952294428 -7.037075350936689 L 8.661732779209078 -7.137844993449182 L 8.661732779209078 -7.137844993449182 L 6.109861546440321 -9.44403024066367 C 5.803713775378556 -9.720426974412224 5.338253998058944 -9.720426974412224 5.03306593787825 -9.44403024066367 L 4.91310207774433 -9.336542621983677 L 2.367948821143072 -7.037075350936689 C 2.1990397060745117 -6.885441031727413 2.1030686179673754 -6.6685463726052845 2.1030686179673754 -6.441094893791371 L 2.1030686179673754 -4.180975768868309 C 2.154893005545229 -4.2347195782083045 2.212475658409511 -4.2827051222618735 2.2710180221548644 -4.328771244553298 C 2.9284199756887483 -4.830700035353622 3.8209510950851175 -4.937227943152544 4.614631993731136 -4.756802297511126 C 4.971644441489683 -4.678106005263275 5.319059780437517 -4.54758532543757 5.646321190882852 -4.383474764774367 C 6.931374060637409 -3.7558238485536943 7.8613339043955595 -3.773098644412978 9.039858866351196 -4.2020894082518785 L 9.039858866351196 -6.441094893791371 C 9.038899155470125 -6.6685463726052845 8.942928067362988 -6.885441031727413 8.774018952294428 -7.037075350936689 Z M 5.484130051981792 -6.4017467476674454 C 5.079132060169677 -6.4420546046724425 4.756669204129697 -6.764517460712421 4.7163613471247 -7.169515452524537 L 5.484130051981792 -7.169515452524537 L 5.484130051981792 -6.4017467476674454 Z M 5.491807739030362 -7.344182832879525 L 4.724039034173272 -7.344182832879525 C 4.764346891178269 -7.749180824691641 5.086809747218247 -8.071643680731619 5.491807739030362 -8.111951537736616 L 5.491807739030362 -7.344182832879525 Z M 5.657837721455708 -6.4017467476674454 L 5.657837721455708 -7.169515452524537 L 6.426566137193871 -7.169515452524537 C 6.385298569307802 -6.764517460712421 6.062835713267824 -6.443014315553514 5.657837721455708 -6.4017467476674454 Z M 5.657837721455708 -7.344182832879525 L 5.657837721455708 -8.111951537736616 C 6.062835713267823 -8.071643680731619 6.385298569307802 -7.749180824691641 6.426566137193871 -7.344182832879525 L 5.657837721455708 -7.344182832879525 Z" fill="#a4cb6a" transform="matrix(1,0,0,1,0,0)" fill-rule="nonzero"></path></g><g clip-path="url(#SvgjsClipPath1016e7bf2e6c-e606-4147-b355-bd826c360e02)"><path d=" M 9.038899155470125 -3.3681006526008623 C 9.034100601064768 -3.322994241190508 8.983235924367985 -3.062912592420169 8.976517948200485 -3.0178061810098145 C 8.93045182590906 -2.7001418793751926 8.843118135731567 -2.398792662718784 8.719315432073362 -2.1195167963270176 C 8.71163774502479 -2.113758531040589 8.703000347095148 -2.1080002657541606 8.695322660046577 -2.102242000467733 C 8.18571618219768 -1.7365921547795429 7.544629313642011 -1.540811135040986 6.915058975659196 -1.5446499785652712 C 6.599314095786718 -1.5456096894463425 6.28452892679531 -1.590716100856696 5.979340866614616 -1.6732512366288326 C 5.565705476872858 -1.784577698833112 5.175103148276813 -1.960204790069171 4.8113727243507665 -2.1770994491912985 C 4.3766236952254385 -2.4410199414859246 3.921720737597612 -2.69150448144555 3.4370667426565724 -2.8345014027251842 C 3.1376369477623074 -2.9218350929026773 2.823811489651971 -2.9659817934319603 2.5138248750659202 -2.9227948037837495 C 2.3957804366941424 -2.9074394296866073 2.280615130965579 -2.8786481032544664 2.168328957880229 -2.8392999571305406 C 2.1165045703023755 -3.0974621841387373 2.0944312200377344 -3.3652215199576476 2.1049880397295193 -3.636819699300844 C 2.3823444843591433 -3.7932525729154767 2.6952102315884083 -3.8873042392604704 3.0099954005798155 -3.918974698335825 C 3.9092444961436836 -4.010147232037605 4.781621687037554 -3.66273189308977 5.540752993965003 -3.2183857551537294 C 5.766285051016773 -3.0974621841387373 6.003333638641401 -2.98709543281553 6.238462804503884 -2.899761742638036 C 7.247118940509887 -2.5254744990202056 8.161723410170897 -2.4371810979616386 9.038899155470125 -3.3681006526008623 Z" fill="#38939d" transform="matrix(1,0,0,1,0,0)" fill-rule="nonzero"></path></g><g clip-path="url(#SvgjsClipPath1016e7bf2e6c-e606-4147-b355-bd826c360e02)"><path d=" M 8.51585672528623 -1.7269950459688292 C 8.107019889949829 -1.0503988748135171 7.476489841085943 -0.5340744207971238 6.739431884423136 -0.26535537409714216 L 6.739431884423136 -0.26535537409714216 C 6.5503688408520775 -0.24904028911892873 6.3603460863999475 -0.25 6.171283042828888 -0.26919421762142726 C 5.60985217740214 -0.32197831608035266 5.0743335057643195 -0.5158399140567695 4.588719799942209 -0.7893575151621075 C 4.522499749148285 -0.826786239523889 4.432286926327576 -0.8795703379828161 4.367986297295795 -0.9208379058688845 C 4.161648457865452 -1.054237718337804 3.951471774910823 -1.1914763743310086 3.741295091956194 -1.3114402344649303 C 3.391000620365146 -1.5101003868467036 2.970647254455889 -1.7289144677309736 2.5627701300005588 -1.793215096762756 C 2.423612052245211 -2.0350622387927393 2.313245300922004 -2.2951438875630794 2.2355087195552237 -2.566742066906275 C 2.574286660573415 -2.6559951788459113 2.944735060666962 -2.6415995156298413 3.2835130016851535 -2.57058091043056 C 3.880453169711542 -2.4458184958912828 4.431327215446505 -2.169421762142731 4.940933693295399 -1.850797749627037 C 4.970684730608612 -1.8325632428866818 5.032106226997179 -1.7970539402870402 5.061857264310392 -1.7797791444277573 C 5.602174490353569 -1.470752240722776 6.201993791023172 -1.240421629265649 6.828684996362772 -1.2327439422170787 C 7.4304237187945175 -1.2212274116442199 8.000491982150908 -1.4218069857881357 8.51585672528623 -1.7269950459688292 Z" fill="#38939d" transform="matrix(1,0,0,1,0,0)" fill-rule="nonzero"></path></g><g clip-path="url(#SvgjsClipPath1016e7bf2e6c-e606-4147-b355-bd826c360e02)"><path d=" M 7.4601747561077305 -2.9621429499076752 C 6.852677768389557 -2.9621429499076752 6.244221069790313 -3.093623340614453 5.717339796082133 -3.385375448460147 C 5.619449286212854 -3.4391192578001446 5.521558776343575 -3.498621332426568 5.427507109998581 -3.5600428288151367 C 5.271074236383949 -3.6550542060412017 5.109842808363959 -3.744307317980839 4.944772536819684 -3.8220438993476185 C 4.505224953289 -4.0303011605401045 4.0292083562776035 -4.167539816533309 3.5397558069312076 -4.1800160579872365 C 3.042625570536241 -4.192492299441165 2.5301399600441323 -4.080206126355816 2.1030686179673754 -3.81628563406119 C 2.1616109817127285 -3.881545973974042 2.2278310325066526 -3.938168915957254 2.296930215943791 -3.9909530144161787 C 2.944735060666962 -4.486163829049002 3.8238302277283314 -4.590772315085782 4.605994595801493 -4.413225802087579 C 4.958208489154684 -4.335489220720798 5.299865562816089 -4.206887962657236 5.622328418856068 -4.045656534637247 C 6.915058975659196 -3.4141667748922897 7.843099397655204 -3.444877523086573 9.038899155470125 -3.8930625045469007 C 8.966920839389772 -3.7260728112404813 8.583036486961227 -2.9621429499076752 7.4601747561077305 -2.9621429499076752 Z" fill="#38939d" transform="matrix(1,0,0,1,0,0)" fill-rule="nonzero"></path></g><g clip-path="url(#SvgjsClipPath1016e7bf2e6c-e606-4147-b355-bd826c360e02)"><path d=" M 5.557068078943215 -4.1838549015115225 C 5.565705476872857 -4.193452010322236 5.57530258568357 -4.203049119132949 5.583939983613213 -4.2126462279436625 L 5.583939983613213 -4.200169986489736 C 5.575302585683572 -4.195371432084379 5.566665187753928 -4.18961316679795 5.557068078943215 -4.1838549015115225 Z" fill="#212245" transform="matrix(1,0,0,1,0,0)" fill-rule="nonzero"></path></g><g clip-path="url(#SvgjsClipPath1016e7bf2e6c-e606-4147-b355-bd826c360e02)"><path d=" M 4.863197111928619 -0.31526033991285374 C 4.041684597731531 -0.47361263528962816 3.31614317164158 -0.8997242664853147 2.78158421088483 -1.500503278035989 C 2.78158421088483 -1.500503278035989 3.6539614017787 -1.2922460168435013 4.863197111928619 -0.31526033991285374 Z" fill="#38939d" transform="matrix(1,0,0,1,0,0)" fill-rule="nonzero"></path></g><g clip-path="url(#SvgjsClipPath1016e7bf2e6c-e606-4147-b355-bd826c360e02)"><path d=" M 3.821910805966189 -1.036003211597448 C 4.471635072451503 -0.6905072944117556 4.77970226527541 -0.29798554405356725 5.478371786695363 -0.2538388435242851 C 5.478371786695363 -0.2538388435242851 4.801775615540051 -0.17322312951429097 3.724020296096909 -0.7365734167031821 L 3.517682456666566 -0.9841788240195921 L 3.821910805966189 -1.036003211597448 Z" fill="#38939d" transform="matrix(1,0,0,1,0,0)" fill-rule="nonzero"></path></g></g></g><defs><clipPath id="SvgjsClipPath1018"><path d=" M 2.1030686179673754 -9.651327790975085 h 6.935830537502749 v 9.401327790975085 h -6.935830537502749 Z"></path></clipPath><clipPath id="SvgjsClipPath1016e7bf2e6c-e606-4147-b355-bd826c360e02"><path d=" M 2.1030686179673754 -9.651327790975085 L 9.038899155470125 -9.651327790975085 L 9.038899155470125 -0.25 L 2.1030686179673754 -0.25 Z"></path></clipPath></defs></svg>